<svg width="2172" height="1351" xmlns="http://www.w3.org/2000/svg"><g><path d="M-88,-49L-116,118L79,109Z" fill="#f5fdfe" stroke="#f5fdfe"/><path d="M-88,-49L79,109L124,-22Z" fill="#f3fafc" stroke="#f3fafc"/><path d="M-88,-49L124,-22L206,-125Z" fill="#f1f8fb" stroke="#f1f8fb"/><path d="M124,-22L79,109L184,134Z" fill="#eaf5fa" stroke="#eaf5fa"/><path d="M124,-22L184,134L206,-125Z" fill="#ebf3f8" stroke="#ebf3f8"/><path d="M206,-125L184,134L399,119Z" fill="#e3eef6" stroke="#e3eef6"/><path d="M206,-125L399,119L445,-90Z" fill="#e0eaf3" stroke="#e0eaf3"/><path d="M206,-125L445,-90L733,-98Z" fill="#dbe6f1" stroke="#dbe6f1"/><path d="M206,-125L733,-98L997,-135Z" fill="#d2e0ee" stroke="#d2e0ee"/><path d="M445,-90L399,119L503,-87Z" fill="#dbe6f1" stroke="#dbe6f1"/><path d="M445,-90L503,-87L733,-98Z" fill="#d6e3ef" stroke="#d6e3ef"/><path d="M503,-87L399,119L622,72Z" fill="#d7e5f0" stroke="#d7e5f0"/><path d="M503,-87L622,72L733,-98Z" fill="#d4e1ee" stroke="#d4e1ee"/><path d="M733,-98L622,72L747,64Z" fill="#cfdeed" stroke="#cfdeed"/><path d="M733,-98L747,64L922,-88Z" fill="#cddaeb" stroke="#cddaeb"/><path d="M733,-98L922,-88L997,-135Z" fill="#cbd5e8" stroke="#cbd5e8"/><path d="M922,-88L747,64L877,117Z" fill="#cad7e9" stroke="#cad7e9"/><path d="M922,-88L877,117L1064,121Z" fill="#c6d1e6" stroke="#c6d1e6"/><path d="M922,-88L1064,121L997,-135Z" fill="#c8d0e5" stroke="#c8d0e5"/><path d="M997,-135L1064,121L1147,59Z" fill="#c5cce3" stroke="#c5cce3"/><path d="M997,-135L1147,59L1231,-37Z" fill="#c6c7e1" stroke="#c6c7e1"/><path d="M997,-135L1231,-37L1310,-71Z" fill="#c5c2df" stroke="#c5c2df"/><path d="M997,-135L1310,-71L1696,-108Z" fill="#c4b5d8" stroke="#c4b5d8"/><path d="M1231,-37L1147,59L1313,36Z" fill="#c4bedd" stroke="#c4bedd"/><path d="M1231,-37L1313,36L1310,-71Z" fill="#c5b9da" stroke="#c5b9da"/><path d="M1310,-71L1313,36L1456,-26Z" fill="#c4b3d7" stroke="#c4b3d7"/><path d="M1310,-71L1456,-26L1696,-108Z" fill="#c3a7d1" stroke="#c3a7d1"/><path d="M1456,-26L1313,36L1542,48Z" fill="#c3acd4" stroke="#c3acd4"/><path d="M1456,-26L1542,48L1696,-108Z" fill="#c39fcc" stroke="#c39fcc"/><path d="M1696,-108L1542,48L1722,58Z" fill="#c297c7" stroke="#c297c7"/><path d="M1696,-108L1722,58L1834,-61Z" fill="#c18dc1" stroke="#c18dc1"/><path d="M1696,-108L1834,-61L1969,-81Z" fill="#c085bc" stroke="#c085bc"/><path d="M1696,-108L1969,-81L2276,-69Z" fill="#bf80b4" stroke="#bf80b4"/><path d="M1834,-61L1722,58L1778,109Z" fill="#bf8ac0" stroke="#bf8ac0"/><path d="M1834,-61L1778,109L1974,187Z" fill="#bb82bb" stroke="#bb82bb"/><path d="M1834,-61L1974,187L1969,-81Z" fill="#be80b7" stroke="#be80b7"/><path d="M1969,-81L1974,187L2060,141Z" fill="#b97fb2" stroke="#b97fb2"/><path d="M1969,-81L2060,141L2138,-19Z" fill="#bd80af" stroke="#bd80af"/><path d="M1969,-81L2138,-19L2276,-69Z" fill="#bd80ab" stroke="#bd80ab"/><path d="M2138,-19L2060,141L2168,36Z" fill="#ba7fab" stroke="#ba7fab"/><path d="M2138,-19L2168,36L2276,-69Z" fill="#bd80a7" stroke="#bd80a7"/><path d="M2276,-69L2168,36L2383,52Z" fill="#bb80a2" stroke="#bb80a2"/><path d="M-116,118L-123,550L-118,413Z" fill="#e4f5ff" stroke="#e4f5ff"/><path d="M-116,118L-118,413L-90,181Z" fill="#effdff" stroke="#effdff"/><path d="M-116,118L-90,181L79,109Z" fill="#f1fdfe" stroke="#f1fdfe"/><path d="M79,109L-90,181L56,249Z" fill="#eafafd" stroke="#eafafd"/><path d="M79,109L56,249L184,134Z" fill="#e5f5fa" stroke="#e5f5fa"/><path d="M184,134L56,249L260,217Z" fill="#e0f2f8" stroke="#e0f2f8"/><path d="M184,134L260,217L399,119Z" fill="#dbecf5" stroke="#dbecf5"/><path d="M399,119L260,217L400,214Z" fill="#d5e9f3" stroke="#d5e9f3"/><path d="M399,119L400,214L587,207Z" fill="#d0e5f1" stroke="#d0e5f1"/><path d="M399,119L587,207L622,72Z" fill="#cfe3f0" stroke="#cfe3f0"/><path d="M622,72L587,207L757,212Z" fill="#c8dfee" stroke="#c8dfee"/><path d="M622,72L757,212L747,64Z" fill="#c8dded" stroke="#c8dded"/><path d="M747,64L757,212L877,117Z" fill="#c5d9eb" stroke="#c5d9eb"/><path d="M877,117L757,212L943,275Z" fill="#bfd5e9" stroke="#bfd5e9"/><path d="M877,117L943,275L1017,213Z" fill="#bdd1e7" stroke="#bdd1e7"/><path d="M877,117L1017,213L1064,121Z" fill="#bfcfe6" stroke="#bfcfe6"/><path d="M1064,121L1017,213L1222,295Z" fill="#b9c8e2" stroke="#b9c8e2"/><path d="M1064,121L1222,295L1147,59Z" fill="#bcc5e0" stroke="#bcc5e0"/><path d="M1147,59L1222,295L1313,36Z" fill="#bdbddd" stroke="#bdbddd"/><path d="M1313,36L1222,295L1349,285Z" fill="#b8b7da" stroke="#b8b7da"/><path d="M1313,36L1349,285L1542,48Z" fill="#bdaed5" stroke="#bdaed5"/><path d="M1542,48L1349,285L1579,221Z" fill="#b8a6d1" stroke="#b8a6d1"/><path d="M1542,48L1579,221L1654,183Z" fill="#b99ccb" stroke="#b99ccb"/><path d="M1542,48L1654,183L1722,58Z" fill="#bc97c8" stroke="#bc97c8"/><path d="M1722,58L1654,183L1778,109Z" fill="#ba8fc3" stroke="#ba8fc3"/><path d="M1778,109L1654,183L1853,303Z" fill="#b58ac1" stroke="#b58ac1"/><path d="M1778,109L1853,303L1974,187Z" fill="#b480ba" stroke="#b480ba"/><path d="M2060,141L1974,187L2108,243Z" fill="#b27eb0" stroke="#b27eb0"/><path d="M2060,141L2108,243L2168,36Z" fill="#b57fac" stroke="#b57fac"/><path d="M2168,36L2108,243L2374,301Z" fill="#b17ea6" stroke="#b17ea6"/><path d="M2168,36L2374,301L2383,52Z" fill="#b37fa0" stroke="#b37fa0"/><path d="M2383,52L2374,301L2379,819Z" fill="#9f749c" stroke="#9f749c"/><path d="M-90,181L-118,413L56,249Z" fill="#e7f9ff" stroke="#e7f9ff"/><path d="M56,249L-118,413L111,431Z" fill="#dbf1fd" stroke="#dbf1fd"/><path d="M56,249L111,431L260,217Z" fill="#d9eef9" stroke="#d9eef9"/><path d="M260,217L111,431L271,446Z" fill="#cfe7f7" stroke="#cfe7f7"/><path d="M260,217L271,446L396,410Z" fill="#c9e2f4" stroke="#c9e2f4"/><path d="M260,217L396,410L400,214Z" fill="#cde5f3" stroke="#cde5f3"/><path d="M400,214L396,410L587,207Z" fill="#c9e2f1" stroke="#c9e2f1"/><path d="M587,207L396,410L612,440Z" fill="#bfdaf0" stroke="#bfdaf0"/><path d="M587,207L612,440L757,212Z" fill="#bfdbee" stroke="#bfdbee"/><path d="M757,212L612,440L763,425Z" fill="#b6d4ed" stroke="#b6d4ed"/><path d="M757,212L763,425L889,376Z" fill="#b5d1eb" stroke="#b5d1eb"/><path d="M757,212L889,376L943,275Z" fill="#b8d1e9" stroke="#b8d1e9"/><path d="M943,275L889,376L978,426Z" fill="#b0c9e7" stroke="#b0c9e7"/><path d="M943,275L978,426L1017,213Z" fill="#b4cae6" stroke="#b4cae6"/><path d="M1017,213L978,426L1222,295Z" fill="#b1c4e3" stroke="#b1c4e3"/><path d="M1222,295L978,426L1220,437Z" fill="#a9bae0" stroke="#a9bae0"/><path d="M1222,295L1220,437L1349,285Z" fill="#adb3db" stroke="#adb3db"/><path d="M1349,285L1220,437L1402,375Z" fill="#aaacd9" stroke="#aaacd9"/><path d="M1349,285L1402,375L1579,221Z" fill="#b0a5d3" stroke="#b0a5d3"/><path d="M1579,221L1402,375L1566,419Z" fill="#ac9ccf" stroke="#ac9ccf"/><path d="M1579,221L1566,419L1643,404Z" fill="#aa93ca" stroke="#aa93ca"/><path d="M1579,221L1643,404L1654,183Z" fill="#b195c9" stroke="#b195c9"/><path d="M1654,183L1643,404L1853,303Z" fill="#ad8ac3" stroke="#ad8ac3"/><path d="M1853,303L1643,404L1778,430Z" fill="#a681c1" stroke="#a681c1"/><path d="M1853,303L1778,430L1895,541Z" fill="#a176bc" stroke="#a176bc"/><path d="M1853,303L1895,541L1949,545Z" fill="#9d6fb8" stroke="#9d6fb8"/><path d="M1853,303L1949,545L2065,371Z" fill="#a173b5" stroke="#a173b5"/><path d="M1853,303L2065,371L1974,187Z" fill="#ac7ab5" stroke="#ac7ab5"/><path d="M1974,187L2065,371L2108,243Z" fill="#ad7cb0" stroke="#ad7cb0"/><path d="M2108,243L2065,371L2185,421Z" fill="#a577ab" stroke="#a577ab"/><path d="M2108,243L2185,421L2374,301Z" fill="#a678a5" stroke="#a678a5"/><path d="M2374,301L2185,421L2257,460Z" fill="#9f74a2" stroke="#9f74a2"/><path d="M2374,301L2257,460L2344,539Z" fill="#9b719f" stroke="#9b719f"/><path d="M2374,301L2344,539L2379,819Z" fill="#946698" stroke="#946698"/><path d="M-118,413L-123,550L51,552Z" fill="#d6eafd" stroke="#d6eafd"/><path d="M-118,413L51,552L111,431Z" fill="#d3eafc" stroke="#d3eafc"/><path d="M111,431L51,552L208,572Z" fill="#cadff7" stroke="#cadff7"/><path d="M111,431L208,572L271,446Z" fill="#c7dff6" stroke="#c7dff6"/><path d="M271,446L208,572L463,508Z" fill="#bed6f2" stroke="#bed6f2"/><path d="M271,446L463,508L396,410Z" fill="#bdd9f3" stroke="#bdd9f3"/><path d="M396,410L463,508L612,440Z" fill="#b8d6f1" stroke="#b8d6f1"/><path d="M612,440L463,508L562,545Z" fill="#b3cfee" stroke="#b3cfee"/><path d="M612,440L562,545L756,497Z" fill="#afccec" stroke="#afccec"/><path d="M612,440L756,497L763,425Z" fill="#aeceed" stroke="#aeceed"/><path d="M763,425L756,497L889,376Z" fill="#adcbeb" stroke="#adcbeb"/><path d="M889,376L756,497L877,583Z" fill="#a9c5e8" stroke="#a9c5e8"/><path d="M889,376L877,583L979,515Z" fill="#a7c0e6" stroke="#a7c0e6"/><path d="M889,376L979,515L978,426Z" fill="#a9c3e7" stroke="#a9c3e7"/><path d="M978,426L979,515L1220,437Z" fill="#a4bce3" stroke="#a4bce3"/><path d="M1220,437L979,515L1217,584Z" fill="#a1b1de" stroke="#a1b1de"/><path d="M1220,437L1217,584L1371,515Z" fill="#a0a5d8" stroke="#a0a5d8"/><path d="M1220,437L1371,515L1402,375Z" fill="#a3a6d8" stroke="#a3a6d8"/><path d="M1402,375L1371,515L1472,569Z" fill="#a19bd3" stroke="#a19bd3"/><path d="M1402,375L1472,569L1566,419Z" fill="#a298d1" stroke="#a298d1"/><path d="M1566,419L1472,569L1636,606Z" fill="#9d88c9" stroke="#9d88c9"/><path d="M1566,419L1636,606L1643,404Z" fill="#a088c8" stroke="#a088c8"/><path d="M1643,404L1636,606L1778,430Z" fill="#9e81c4" stroke="#9e81c4"/><path d="M1778,430L1636,606L1895,541Z" fill="#9c74bd" stroke="#9c74bd"/><path d="M2065,371L1949,545L2149,580Z" fill="#9a6bad" stroke="#9a6bad"/><path d="M2065,371L2149,580L2185,421Z" fill="#9b70aa" stroke="#9b70aa"/><path d="M2185,421L2149,580L2257,460Z" fill="#9a6da5" stroke="#9a6da5"/><path d="M2257,460L2149,580L2344,539Z" fill="#9769a1" stroke="#9769a1"/><path d="M-123,550L-110,1568L-98,872Z" fill="#cda4d8" stroke="#cda4d8"/><path d="M-123,550L-98,872L-90,778Z" fill="#d0cff1" stroke="#d0cff1"/><path d="M-123,550L-90,778L51,552Z" fill="#d0def7" stroke="#d0def7"/><path d="M51,552L-90,778L83,752Z" fill="#c9d2f2" stroke="#c9d2f2"/><path d="M51,552L83,752L208,572Z" fill="#c6d5f2" stroke="#c6d5f2"/><path d="M208,572L83,752L297,710Z" fill="#becbee" stroke="#becbee"/><path d="M208,572L297,710L463,508Z" fill="#b9cdee" stroke="#b9cdee"/><path d="M463,508L297,710L455,692Z" fill="#b3c6ea" stroke="#b3c6ea"/><path d="M463,508L455,692L562,545Z" fill="#b2c9eb" stroke="#b2c9eb"/><path d="M562,545L455,692L553,724Z" fill="#adc0e8" stroke="#adc0e8"/><path d="M562,545L553,724L673,699Z" fill="#aabee6" stroke="#aabee6"/><path d="M562,545L673,699L756,497Z" fill="#aac3e8" stroke="#aac3e8"/><path d="M756,497L673,699L877,583Z" fill="#a6bde6" stroke="#a6bde6"/><path d="M877,583L673,699L860,734Z" fill="#a1b4e1" stroke="#a1b4e1"/><path d="M877,583L860,734L1085,683Z" fill="#9eadde" stroke="#9eadde"/><path d="M877,583L1085,683L979,515Z" fill="#a0b2e0" stroke="#a0b2e0"/><path d="M979,515L1085,683L1217,584Z" fill="#9eacdc" stroke="#9eacdc"/><path d="M1217,584L1085,683L1195,671Z" fill="#9ba1d7" stroke="#9ba1d7"/><path d="M1217,584L1195,671L1361,778Z" fill="#9995d2" stroke="#9995d2"/><path d="M1217,584L1361,778L1371,515Z" fill="#9b95d1" stroke="#9b95d1"/><path d="M1371,515L1361,778L1472,569Z" fill="#9b8ece" stroke="#9b8ece"/><path d="M1472,569L1361,778L1519,685Z" fill="#9884ca" stroke="#9884ca"/><path d="M1472,569L1519,685L1636,606Z" fill="#9981c7" stroke="#9981c7"/><path d="M1636,606L1519,685L1624,726Z" fill="#9677c1" stroke="#9677c1"/><path d="M1636,606L1624,726L1776,717Z" fill="#966dbc" stroke="#966dbc"/><path d="M1636,606L1776,717L1895,541Z" fill="#976bb9" stroke="#976bb9"/><path d="M1895,541L1776,717L1949,545Z" fill="#9763b3" stroke="#9763b3"/><path d="M1949,545L1776,717L2047,726Z" fill="#945bae" stroke="#945bae"/><path d="M1949,545L2047,726L2149,580Z" fill="#9460a9" stroke="#9460a9"/><path d="M2149,580L2047,726L2180,748Z" fill="#9158a1" stroke="#9158a1"/><path d="M2149,580L2180,748L2344,539Z" fill="#935f9e" stroke="#935f9e"/><path d="M2344,539L2180,748L2343,758Z" fill="#905997" stroke="#905997"/><path d="M2344,539L2343,758L2379,819Z" fill="#8e5591" stroke="#8e5591"/><path d="M-90,778L-98,872L83,752Z" fill="#cbc2ea" stroke="#cbc2ea"/><path d="M83,752L-98,872L113,915Z" fill="#c6b7e5" stroke="#c6b7e5"/><path d="M83,752L113,915L216,930Z" fill="#c0aee0" stroke="#c0aee0"/><path d="M83,752L216,930L297,710Z" fill="#bcb7e4" stroke="#bcb7e4"/><path d="M297,710L216,930L439,906Z" fill="#b4a8dd" stroke="#b4a8dd"/><path d="M297,710L439,906L455,692Z" fill="#b1b2e1" stroke="#b1b2e1"/><path d="M455,692L439,906L553,724Z" fill="#adaedf" stroke="#adaedf"/><path d="M553,724L439,906L616,936Z" fill="#a99fd7" stroke="#a99fd7"/><path d="M553,724L616,936L697,857Z" fill="#a59fd7" stroke="#a59fd7"/><path d="M553,724L697,857L673,699Z" fill="#a6acde" stroke="#a6acde"/><path d="M673,699L697,857L860,734Z" fill="#a1a8dc" stroke="#a1a8dc"/><path d="M860,734L697,857L868,938Z" fill="#9f97d3" stroke="#9f97d3"/><path d="M860,734L868,938L1006,897Z" fill="#9c8fcf" stroke="#9c8fcf"/><path d="M860,734L1006,897L1085,683Z" fill="#9b9ad4" stroke="#9b9ad4"/><path d="M1085,683L1006,897L1177,928Z" fill="#9889cc" stroke="#9889cc"/><path d="M1085,683L1177,928L1195,671Z" fill="#9890cf" stroke="#9890cf"/><path d="M1195,671L1177,928L1361,778Z" fill="#9783c9" stroke="#9783c9"/><path d="M1361,778L1177,928L1359,857Z" fill="#9773c2" stroke="#9773c2"/><path d="M1361,778L1359,857L1508,886Z" fill="#966cbe" stroke="#966cbe"/><path d="M1361,778L1508,886L1519,685Z" fill="#9771c0" stroke="#9771c0"/><path d="M1519,685L1508,886L1624,726Z" fill="#966bbc" stroke="#966bbc"/><path d="M1624,726L1508,886L1722,833Z" fill="#955cb4" stroke="#955cb4"/><path d="M1624,726L1722,833L1776,717Z" fill="#945db3" stroke="#945db3"/><path d="M1776,717L1722,833L1829,833Z" fill="#9350ac" stroke="#9350ac"/><path d="M1776,717L1829,833L2047,726Z" fill="#934ca9" stroke="#934ca9"/><path d="M2047,726L1829,833L2046,856Z" fill="#9144a0" stroke="#9144a0"/><path d="M2047,726L2046,856L2180,748Z" fill="#91489b" stroke="#91489b"/><path d="M2180,748L2046,856L2203,920Z" fill="#8f3d93" stroke="#8f3d93"/><path d="M2180,748L2203,920L2343,758Z" fill="#8f4390" stroke="#8f4390"/><path d="M2343,758L2203,920L2379,819Z" fill="#8e3f8a" stroke="#8e3f8a"/><path d="M-98,872L-110,1568L-81,1074Z" fill="#c98ac5" stroke="#c98ac5"/><path d="M-98,872L-81,1074L77,1062Z" fill="#c8a2d7" stroke="#c8a2d7"/><path d="M-98,872L77,1062L113,915Z" fill="#c5a6db" stroke="#c5a6db"/><path d="M113,915L77,1062L203,1059Z" fill="#bd98d1" stroke="#bd98d1"/><path d="M113,915L203,1059L216,930Z" fill="#bb9cd5" stroke="#bb9cd5"/><path d="M216,930L203,1059L346,1059Z" fill="#b691cd" stroke="#b691cd"/><path d="M216,930L346,1059L439,906Z" fill="#b295d0" stroke="#b295d0"/><path d="M439,906L346,1059L528,1047Z" fill="#ab8bca" stroke="#ab8bca"/><path d="M439,906L528,1047L616,936Z" fill="#a88ecd" stroke="#a88ecd"/><path d="M616,936L528,1047L686,1032Z" fill="#a385c7" stroke="#a385c7"/><path d="M616,936L686,1032L697,857Z" fill="#a28dcd" stroke="#a28dcd"/><path d="M697,857L686,1032L868,938Z" fill="#9f8acc" stroke="#9f8acc"/><path d="M868,938L686,1032L841,1045Z" fill="#9c7ec3" stroke="#9c7ec3"/><path d="M868,938L841,1045L1006,897Z" fill="#9b7fc5" stroke="#9b7fc5"/><path d="M1006,897L841,1045L1095,991Z" fill="#9878c1" stroke="#9878c1"/><path d="M1006,897L1095,991L1177,928Z" fill="#9778c2" stroke="#9778c2"/><path d="M1177,928L1095,991L1244,1062Z" fill="#9569b9" stroke="#9569b9"/><path d="M1177,928L1244,1062L1359,857Z" fill="#9568ba" stroke="#9568ba"/><path d="M1359,857L1244,1062L1406,1084Z" fill="#9459b1" stroke="#9459b1"/><path d="M1359,857L1406,1084L1508,886Z" fill="#955ab4" stroke="#955ab4"/><path d="M1508,886L1406,1084L1494,1058Z" fill="#934ca9" stroke="#934ca9"/><path d="M1508,886L1494,1058L1723,1058Z" fill="#9243a4" stroke="#9243a4"/><path d="M1508,886L1723,1058L1722,833Z" fill="#9347a8" stroke="#9347a8"/><path d="M1722,833L1723,1058L1786,1030Z" fill="#91369d" stroke="#91369d"/><path d="M1722,833L1786,1030L1829,833Z" fill="#923ea4" stroke="#923ea4"/><path d="M1829,833L1786,1030L2062,988Z" fill="#902c97" stroke="#902c97"/><path d="M1829,833L2062,988L2046,856Z" fill="#903598" stroke="#903598"/><path d="M2046,856L2062,988L2203,920Z" fill="#8e308e" stroke="#8e308e"/><path d="M2203,920L2062,988L2189,984Z" fill="#8d2a86" stroke="#8d2a86"/><path d="M2203,920L2189,984L2369,1100Z" fill="#8b247c" stroke="#8b247c"/><path d="M2203,920L2369,1100L2379,819Z" fill="#8c2c7f" stroke="#8c2c7f"/><path d="M-81,1074L-110,1568L-42,1212Z" fill="#c680b8" stroke="#c680b8"/><path d="M-81,1074L-42,1212L77,1062Z" fill="#c590c9" stroke="#c590c9"/><path d="M77,1062L-42,1212L139,1192Z" fill="#c086c3" stroke="#c086c3"/><path d="M77,1062L139,1192L203,1059Z" fill="#bb8ac6" stroke="#bb8ac6"/><path d="M203,1059L139,1192L238,1174Z" fill="#b781c0" stroke="#b781c0"/><path d="M203,1059L238,1174L346,1059Z" fill="#b484c3" stroke="#b484c3"/><path d="M346,1059L238,1174L444,1254Z" fill="#ad77ba" stroke="#ad77ba"/><path d="M346,1059L444,1254L528,1047Z" fill="#a97abc" stroke="#a97abc"/><path d="M528,1047L444,1254L498,1263Z" fill="#a66eb4" stroke="#a66eb4"/><path d="M528,1047L498,1263L769,1190Z" fill="#a16eb5" stroke="#a16eb5"/><path d="M528,1047L769,1190L686,1032Z" fill="#a077bc" stroke="#a077bc"/><path d="M686,1032L769,1190L841,1045Z" fill="#9c73ba" stroke="#9c73ba"/><path d="M841,1045L769,1190L830,1187Z" fill="#9a69b3" stroke="#9a69b3"/><path d="M841,1045L830,1187L1014,1160Z" fill="#9866b2" stroke="#9866b2"/><path d="M841,1045L1014,1160L1095,991Z" fill="#976bb7" stroke="#976bb7"/><path d="M1095,991L1014,1160L1244,1062Z" fill="#9462b2" stroke="#9462b2"/><path d="M1244,1062L1014,1160L1158,1255Z" fill="#9253a7" stroke="#9253a7"/><path d="M1244,1062L1158,1255L1307,1191Z" fill="#9149a2" stroke="#9149a2"/><path d="M1244,1062L1307,1191L1406,1084Z" fill="#924aa5" stroke="#924aa5"/><path d="M1406,1084L1307,1191L1555,1204Z" fill="#913a9b" stroke="#913a9b"/><path d="M1406,1084L1555,1204L1494,1058Z" fill="#913b9d" stroke="#913b9d"/><path d="M1494,1058L1555,1204L1623,1206Z" fill="#902e94" stroke="#902e94"/><path d="M1494,1058L1623,1206L1723,1058Z" fill="#903096" stroke="#903096"/><path d="M1723,1058L1623,1206L1865,1204Z" fill="#8e1c89" stroke="#8e1c89"/><path d="M1723,1058L1865,1204L1786,1030Z" fill="#8e1f8c" stroke="#8e1f8c"/><path d="M1786,1030L1865,1204L2062,988Z" fill="#8e1989" stroke="#8e1989"/><path d="M2062,988L1865,1204L1941,1231Z" fill="#8c0f7e" stroke="#8c0f7e"/><path d="M2062,988L1941,1231L2152,1264Z" fill="#8b0d76" stroke="#8b0d76"/><path d="M2062,988L2152,1264L2189,984Z" fill="#8c197a" stroke="#8c197a"/><path d="M2189,984L2152,1264L2284,1237Z" fill="#890c6d" stroke="#890c6d"/><path d="M2189,984L2284,1237L2369,1100Z" fill="#8a156e" stroke="#8a156e"/><path d="M2369,1100L2284,1237L2303,1299Z" fill="#870560" stroke="#870560"/><path d="M2369,1100L2303,1299L2315,1521Z" fill="#860055" stroke="#860055"/><path d="M-42,1212L-110,1568L-26,1405Z" fill="#c37fab" stroke="#c37fab"/><path d="M-42,1212L-26,1405L53,1374Z" fill="#c17db1" stroke="#c17db1"/><path d="M-42,1212L53,1374L139,1192Z" fill="#be7ab7" stroke="#be7ab7"/><path d="M139,1192L53,1374L275,1362Z" fill="#b674ae" stroke="#b674ae"/><path d="M139,1192L275,1362L238,1174Z" fill="#b471b4" stroke="#b471b4"/><path d="M238,1174L275,1362L444,1254Z" fill="#ad6caf" stroke="#ad6caf"/><path d="M444,1254L275,1362L443,1404Z" fill="#a869a4" stroke="#a869a4"/><path d="M444,1254L443,1404L498,1263Z" fill="#a567a7" stroke="#a567a7"/><path d="M498,1263L443,1404L572,1389Z" fill="#a265a1" stroke="#a265a1"/><path d="M498,1263L572,1389L689,1364Z" fill="#9f63a2" stroke="#9f63a2"/><path d="M498,1263L689,1364L769,1190Z" fill="#9d61a8" stroke="#9d61a8"/><path d="M769,1190L689,1364L876,1360Z" fill="#985ba1" stroke="#985ba1"/><path d="M769,1190L876,1360L830,1187Z" fill="#9859a7" stroke="#9859a7"/><path d="M830,1187L876,1360L1014,1160Z" fill="#9656a6" stroke="#9656a6"/><path d="M1014,1160L876,1360L1077,1324Z" fill="#93509e" stroke="#93509e"/><path d="M1014,1160L1077,1324L1158,1255Z" fill="#914ba0" stroke="#914ba0"/><path d="M1158,1255L1077,1324L1136,1336Z" fill="#904897" stroke="#904897"/><path d="M1158,1255L1136,1336L1370,1366Z" fill="#8f3f91" stroke="#8f3f91"/><path d="M1158,1255L1370,1366L1307,1191Z" fill="#903a95" stroke="#903a95"/><path d="M1307,1191L1370,1366L1555,1204Z" fill="#8f2f91" stroke="#8f2f91"/><path d="M1555,1204L1370,1366L1565,1412Z" fill="#8d2684" stroke="#8d2684"/><path d="M1555,1204L1565,1412L1623,1206Z" fill="#8d1e85" stroke="#8d1e85"/><path d="M1623,1206L1565,1412L1687,1345Z" fill="#8c1a7d" stroke="#8c1a7d"/><path d="M1623,1206L1687,1345L1865,1204Z" fill="#8d107f" stroke="#8d107f"/><path d="M1865,1204L1687,1345L1894,1332Z" fill="#8b0775" stroke="#8b0775"/><path d="M1865,1204L1894,1332L1941,1231Z" fill="#8a0074" stroke="#8a0074"/><path d="M1941,1231L1894,1332L1958,1350Z" fill="#8a006d" stroke="#8a006d"/><path d="M1941,1231L1958,1350L2152,1264Z" fill="#89006a" stroke="#89006a"/><path d="M2152,1264L1958,1350L2159,1376Z" fill="#880061" stroke="#880061"/><path d="M2152,1264L2159,1376L2303,1299Z" fill="#86005c" stroke="#86005c"/><path d="M2152,1264L2303,1299L2284,1237Z" fill="#87005e" stroke="#87005e"/><path d="M-26,1405L-110,1568L141,1557Z" fill="#bd7c9c" stroke="#bd7c9c"/><path d="M-26,1405L141,1557L53,1374Z" fill="#bb79a2" stroke="#bb79a2"/><path d="M53,1374L141,1557L275,1362Z" fill="#b474a1" stroke="#b474a1"/><path d="M275,1362L141,1557L275,1538Z" fill="#af7098" stroke="#af7098"/><path d="M275,1362L275,1538L443,1404Z" fill="#a96b9b" stroke="#a96b9b"/><path d="M443,1404L275,1538L419,1573Z" fill="#a56992" stroke="#a56992"/><path d="M443,1404L419,1573L518,1498Z" fill="#a26792" stroke="#a26792"/><path d="M443,1404L518,1498L572,1389Z" fill="#a06598" stroke="#a06598"/><path d="M572,1389L518,1498L738,1470Z" fill="#9b6294" stroke="#9b6294"/><path d="M572,1389L738,1470L689,1364Z" fill="#9a6098" stroke="#9a6098"/><path d="M689,1364L738,1470L876,1360Z" fill="#965c97" stroke="#965c97"/><path d="M876,1360L738,1470L823,1580Z" fill="#945a8e" stroke="#945a8e"/><path d="M876,1360L823,1580L983,1501Z" fill="#92558b" stroke="#92558b"/><path d="M876,1360L983,1501L1077,1324Z" fill="#915192" stroke="#915192"/><path d="M1077,1324L983,1501L1182,1486Z" fill="#8e4c8a" stroke="#8e4c8a"/><path d="M1077,1324L1182,1486L1136,1336Z" fill="#8e478e" stroke="#8e478e"/><path d="M1136,1336L1182,1486L1370,1366Z" fill="#8d3f89" stroke="#8d3f89"/><path d="M1370,1366L1182,1486L1326,1565Z" fill="#8c397d" stroke="#8c397d"/><path d="M1370,1366L1326,1565L1529,1518Z" fill="#8b2f77" stroke="#8b2f77"/><path d="M1370,1366L1529,1518L1565,1412Z" fill="#8b2779" stroke="#8b2779"/><path d="M1565,1412L1529,1518L1715,1499Z" fill="#8a1c6d" stroke="#8a1c6d"/><path d="M1565,1412L1715,1499L1687,1345Z" fill="#8a1770" stroke="#8a1770"/><path d="M1687,1345L1715,1499L1894,1332Z" fill="#8a0c6d" stroke="#8a0c6d"/><path d="M1894,1332L1715,1499L1861,1528Z" fill="#880662" stroke="#880662"/><path d="M1894,1332L1861,1528L1958,1350Z" fill="#880063" stroke="#880063"/><path d="M1958,1350L1861,1528L1984,1563Z" fill="#860059" stroke="#860059"/><path d="M1958,1350L1984,1563L2159,1376Z" fill="#860058" stroke="#860058"/><path d="M2159,1376L1984,1563L2190,1486Z" fill="#85004f" stroke="#85004f"/><path d="M2159,1376L2190,1486L2303,1299Z" fill="#850053" stroke="#850053"/><path d="M2303,1299L2190,1486L2315,1521Z" fill="#84004a" stroke="#84004a"/><path d="M-110,1568L823,1580L419,1573Z" fill="#a4698a" stroke="#a4698a"/><path d="M-110,1568L419,1573L141,1557Z" fill="#b27591" stroke="#b27591"/><path d="M141,1557L419,1573L275,1538Z" fill="#ab6e8f" stroke="#ab6e8f"/><path d="M419,1573L823,1580L518,1498Z" fill="#9b638a" stroke="#9b638a"/><path d="M518,1498L823,1580L738,1470Z" fill="#975f8c" stroke="#975f8c"/><path d="M823,1580L1984,1563L1326,1565Z" fill="#8a316f" stroke="#8a316f"/><path d="M823,1580L1326,1565L983,1501Z" fill="#8d4d7e" stroke="#8d4d7e"/><path d="M983,1501L1326,1565L1182,1486Z" fill="#8c447d" stroke="#8c447d"/><path d="M1326,1565L1984,1563L1529,1518Z" fill="#881b64" stroke="#881b64"/><path d="M1529,1518L1984,1563L1861,1528Z" fill="#860a5b" stroke="#860a5b"/><path d="M1529,1518L1861,1528L1715,1499Z" fill="#881263" stroke="#881263"/><path d="M1984,1563L2315,1521L2190,1486Z" fill="#830046" stroke="#830046"/></g></svg>